# xmcd
#
# Track frame offsets: 
#        150
#        11387
#        21479
#        31377
#        41150
#        51573
#        62574
#        75030
#        87551
#        97818
#        109410
#        120662
#        130652
#        141929
#        150306
#        161989
#        171230
#        180836
#        190279
#        204827
#        218831
#        233051
#        244961
#        255544
#        265841
#        276167
#        287152
#        299875
#        311068
#
# Disc length: 4301 seconds
#
# Revision: 0
# Processed by: cddbd v1.5.2PL0 Copyright (c) Steve Scherf et al.
# Submitted via: ExactAudioCopy v1.3
#
DISCID=a510cb1d
DTITLE=Jimmy Wakely - The Jimmy Wakely Collection 1940-53_CD3
DYEAR=2019
DGENRE=Country
TTITLE0=Did You Write A Letter To Your Sweetheart 
TTITLE1=Margaret Whiting and Jimmy Wakely - Till We Meet Again
TTITLE2=Margaret Whiting and Jimmy Wakely - When You And I Were Young Ma
TTITLE2=ggie Blues
TTITLE3=Old Soldiers Never Die
TTITLE4=I Like The Wide Open Spaces
TTITLE5=Don't Be Lonely
TTITLE6=Margaret Whiting and Jimmy Wakely - Star Of Hope
TTITLE7=Another Fool Steps In
TTITLE8=The Solid South 
TTITLE9=Margaret Whiting and Jimmy Wakely - I Don't Want To Be Free
TTITLE10=Each Step Of The Wa
TTITLE11=Won't You Ride In My Little Red Wagon 
TTITLE12=Keep A Light In Your Window Tonight 
TTITLE13=Margaret Whiting and Jimmy Wakely - Give Me More, More, More Of
TTITLE13=Your Kisses
TTITLE14=Jimmy Wakely with Les Baxter's Orch. And Chorus - Goodbye, Li
TTITLE14=ttle Girl
TTITLE15=Just Because
TTITLE16=If You Would Only Be Mine
TTITLE17=Jimmy Wakely and Bob Hope - There's A Cloud In My Valley Of Sun
TTITLE17=shine 
TTITLE18=The Same Old Lovelight In Your Eyes
TTITLE19=I Went To Your Wedding 
TTITLE20=Rainbow At Midnight 
TTITLE21=Lorelei
TTITLE22=If You Knew What It Meant To Be Lonesome - Jimmy Wakely
TTITLE23=Margaret Whiting and Jimmy Wakely - Gomen-Nasai 
TTITLE24=Out Of Sight, Out Of Mind
TTITLE25=Margaret Whiting and Jimmy Wakely - When Love Goes Wrong
TTITLE26=Too Late
TTITLE27=Thanks
TTITLE28=Margaret Whiting and Jimmy Wakely - Tennessee Church Bells
EXTD=
EXTT0=
EXTT1=
EXTT2=
EXTT3=
EXTT4=
EXTT5=
EXTT6=
EXTT7=
EXTT8=
EXTT9=
EXTT10=
EXTT11=
EXTT12=
EXTT13=
EXTT14=
EXTT15=
EXTT16=
EXTT17=
EXTT18=
EXTT19=
EXTT20=
EXTT21=
EXTT22=
EXTT23=
EXTT24=
EXTT25=
EXTT26=
EXTT27=
EXTT28=
PLAYORDER=
